# Blender v2.91.2 OBJ File: ''
# www.blender.org
mtllib Big cube.mtl
o obj_0.013
v 10.000000 18.933739 -10.594669
v 10.000000 18.933735 9.404931
v 10.000000 -0.063662 -10.594671
v 10.000000 -0.063665 9.405329
v 10.000000 18.933334 9.405331
v -10.000000 18.933739 -10.594669
v -10.000000 -0.063662 -10.594671
v -10.000000 18.933735 9.404931
v -10.000000 -0.063665 9.405329
v -10.000000 18.933334 9.405331
v 1.002098 19.936335 8.402330
v 0.000000 18.934334 9.404330
v 8.997398 19.936335 8.402330
v -1.002098 19.936335 8.402330
v -8.997398 19.936335 8.402330
v 0.000000 18.934336 -0.736669
v -1.002098 19.936337 0.265331
v 0.000000 18.934338 -10.594069
v 1.002098 19.936338 -9.592070
v 8.997398 19.936338 -9.592070
v -1.002098 19.936338 -9.592070
v -8.997398 19.936338 -9.592070
v -8.997398 19.936337 0.265331
v 1.002098 19.936337 -1.738769
v 8.997398 19.936337 -1.738769
v -8.997398 19.936337 -1.738769
v -1.002098 19.936337 -1.738769
v 8.997398 19.936337 0.265331
v 1.002098 19.936337 0.265331
v 9.999397 18.934336 -0.736669
v -9.999397 18.934336 -0.736669
vn 1.0000 0.0000 0.0000
vn 1.0000 -0.0020 0.0000
vn -1.0000 0.0000 0.0000
vn -0.0000 0.7071 0.7071
vn -0.0004 0.7036 0.7106
vn 0.0000 0.7069 0.7073
vn 0.0004 0.7036 0.7106
vn 0.0000 -0.0000 1.0000
vn -0.7071 0.7071 0.0000
vn 0.0000 0.0000 -1.0000
vn 0.7071 0.7071 0.0000
vn -0.0000 0.7071 -0.7071
vn 0.0000 0.7087 -0.7055
vn -1.0000 -0.0020 0.0000
vn 0.0000 1.0000 0.0000
vn 0.0000 -1.0000 -0.0000
vn -0.7048 0.7094 0.0000
vn 0.7048 0.7094 0.0000
usemtl grigio_scuro
s off
f 1//1 2//1 3//1
f 4//1 3//1 5//1
f 5//2 3//2 2//2
f 6//3 7//3 8//3
f 9//3 10//3 7//3
f 11//4 12//4 5//4
f 11//5 5//5 2//5
f 11//4 2//4 13//4
f 5//6 12//6 10//6
f 12//4 14//4 10//4
f 8//7 10//7 14//7
f 8//4 14//4 15//4
f 10//8 9//8 5//8
f 11//9 16//9 12//9
f 6//10 1//10 7//10
f 17//11 14//11 16//11
f 12//11 16//11 14//11
f 18//12 19//12 1//12
f 20//12 1//12 19//12
f 1//13 6//13 18//13
f 21//12 18//12 6//12
f 21//12 6//12 22//12
f 10//14 8//14 7//14
f 17//15 23//15 15//15
f 19//15 24//15 25//15
f 19//15 25//15 20//15
f 26//15 27//15 21//15
f 26//15 21//15 22//15
f 14//15 17//15 15//15
f 4//16 9//16 7//16
f 4//16 7//16 3//16
f 13//15 28//15 29//15
f 13//15 29//15 11//15
f 24//9 19//9 18//9
f 24//9 18//9 16//9
f 21//11 27//11 18//11
f 16//11 18//11 27//11
f 30//12 16//12 29//12
f 30//12 29//12 28//12
f 17//12 16//12 31//12
f 17//12 31//12 23//12
f 11//9 29//9 16//9
f 4//8 5//8 9//8
f 7//10 1//10 3//10
f 6//9 31//9 26//9
f 6//9 26//9 22//9
f 8//9 15//9 31//9
f 6//17 8//17 31//17
f 23//9 31//9 15//9
f 30//11 1//11 25//11
f 20//11 25//11 1//11
f 28//11 13//11 30//11
f 13//11 2//11 30//11
f 1//18 30//18 2//18
f 24//4 16//4 30//4
f 24//4 30//4 25//4
f 31//4 16//4 27//4
f 31//4 27//4 26//4
