# Blender v2.91.2 OBJ File: ''
# www.blender.org
mtllib Box.mtl
o obj_0.004
v 9.000782 18.002781 6.002107
v 9.999783 18.002781 6.002107
v 9.999783 2.997782 -8.001893
v 9.000782 2.997782 -8.001893
v 9.000782 17.001780 8.002107
v 9.999783 17.001780 8.002107
v 9.999783 1.997780 8.002105
v 9.000782 1.997780 8.002105
v 9.000782 1.997782 -6.001894
v 9.999783 1.997782 -6.001894
v 9.000782 18.002783 -8.001891
v 9.999783 18.002783 -8.001891
v -10.000217 18.002781 6.002107
v -9.001218 18.002781 6.002107
v -9.001218 2.997782 -8.001893
v -10.000217 2.997782 -8.001893
v -10.000217 17.001780 8.002107
v -9.001218 17.001780 8.002107
v -9.001218 1.997780 8.002105
v -10.000217 1.997780 8.002105
v -10.000217 1.997782 -6.001894
v -9.001218 1.997782 -6.001894
v -10.000217 18.002783 -8.001891
v -9.001218 18.002783 -8.001891
v 8.002783 -0.000220 8.002105
v 8.002783 1.001780 8.002105
v 8.002783 1.001781 -8.002892
v 8.002783 -0.000218 -8.002892
v 8.002783 18.997778 8.002107
v 8.002783 19.999779 8.002107
v 8.002783 19.999783 -8.002891
v 8.002783 18.997782 -8.002891
v 8.002783 18.002779 10.000108
v 8.002783 18.002779 9.001107
v 8.002783 2.997780 9.001105
v 8.002783 2.997780 10.000106
v 8.002783 2.997782 -9.999894
v 8.002783 2.997782 -9.000894
v 8.002783 18.002783 -9.000892
v 8.002783 18.002783 -9.999892
v 9.999783 19.999779 10.000108
v -8.002217 1.001780 8.002105
v -8.002217 -0.000220 8.002105
v -8.002217 1.001781 -8.002892
v -8.002217 -0.000218 -8.002892
v -8.002217 19.999783 -8.002891
v -8.002217 18.997782 -8.002891
v -8.002217 18.997778 8.002107
v -8.002217 19.999779 8.002107
v -6.002217 18.002779 9.001107
v -6.002217 18.002779 10.000108
v -8.002217 17.001780 9.001107
v 6.001783 1.997780 9.001105
v 6.001783 1.997780 10.000106
v -8.002217 17.001780 10.000108
v -8.002217 1.997780 9.001105
v -8.002217 1.997780 10.000106
v 9.999783 -0.000218 -9.999894
v -10.000217 -0.000221 10.000106
v -10.000217 -0.000218 -9.999894
v 9.999783 -0.000221 10.000106
v 9.999783 19.999783 -9.999892
v -10.000217 19.999779 10.000108
v -10.000217 19.999783 -9.999892
v 6.001783 1.997782 -9.999894
v -6.002217 18.002783 -9.999892
v -8.002217 17.001783 -9.999892
v -8.002217 1.997782 -9.999894
v -6.002217 18.002783 -9.000892
v 6.001783 1.997782 -9.000894
v -8.002217 17.001783 -9.000892
v -8.002217 1.997782 -9.000894
vn 0.0000 0.6823 -0.7311
vn 0.0000 0.0000 -1.0000
vn 0.0000 -0.6823 0.7310
vn 0.0000 1.0000 0.0000
vn 0.0000 -1.0000 -0.0000
vn -1.0000 0.0000 0.0000
vn 0.0000 -0.0000 1.0000
vn 0.7310 0.6823 0.0000
vn -0.7310 -0.6823 0.0000
vn 1.0000 0.0000 0.0000
usemtl marrone
s off
f 1//1 2//1 3//1
f 1//1 3//1 4//1
f 5//2 6//2 7//2
f 5//2 7//2 8//2
f 6//3 5//3 9//3
f 6//3 9//3 10//3
f 8//4 7//4 10//4
f 8//4 10//4 9//4
f 11//5 12//5 2//5
f 11//5 2//5 1//5
f 13//1 14//1 15//1
f 13//1 15//1 16//1
f 17//2 18//2 19//2
f 17//2 19//2 20//2
f 21//3 22//3 18//3
f 21//3 18//3 17//3
f 20//4 19//4 22//4
f 20//4 22//4 21//4
f 23//5 24//5 14//5
f 23//5 14//5 13//5
f 25//6 26//6 27//6
f 25//6 27//6 28//6
f 29//6 30//6 31//6
f 29//6 31//6 32//6
f 33//6 34//6 35//6
f 33//6 35//6 36//6
f 37//6 38//6 39//6
f 37//6 39//6 40//6
f 12//7 11//7 4//7
f 12//7 4//7 3//7
f 33//7 36//7 41//7
f 42//2 26//2 25//2
f 42//2 25//2 43//2
f 27//7 44//7 45//7
f 27//7 45//7 28//7
f 46//7 47//7 32//7
f 46//7 32//7 31//7
f 30//2 29//2 48//2
f 30//2 48//2 49//2
f 35//8 50//8 51//8
f 35//8 51//8 36//8
f 52//9 53//9 54//9
f 52//9 54//9 55//9
f 54//4 53//4 56//4
f 54//4 56//4 57//4
f 51//5 50//5 34//5
f 51//5 34//5 33//5
f 58//5 28//5 45//5
f 59//5 60//5 43//5
f 45//5 43//5 60//5
f 58//5 45//5 60//5
f 58//5 61//5 25//5
f 58//5 25//5 28//5
f 31//4 62//4 46//4
f 41//4 30//4 49//4
f 41//4 49//4 63//4
f 46//4 64//4 49//4
f 64//4 63//4 49//4
f 64//4 46//4 62//4
f 31//4 30//4 62//4
f 41//4 62//4 30//4
f 37//2 65//2 66//2
f 65//2 67//2 66//2
f 37//2 58//2 65//2
f 58//2 60//2 65//2
f 64//2 66//2 67//2
f 68//2 60//2 67//2
f 68//2 65//2 60//2
f 64//2 67//2 60//2
f 40//2 62//2 37//2
f 58//2 37//2 62//2
f 62//2 40//2 66//2
f 66//2 64//2 62//2
f 61//7 54//7 59//7
f 55//7 54//7 51//7
f 36//7 51//7 54//7
f 57//7 59//7 54//7
f 36//7 54//7 61//7
f 41//7 63//7 51//7
f 41//7 51//7 33//7
f 57//7 55//7 59//7
f 63//7 59//7 55//7
f 51//7 63//7 55//7
f 41//7 36//7 61//7
f 58//10 62//10 3//10
f 3//10 2//10 10//10
f 61//10 7//10 6//10
f 61//10 6//10 41//10
f 66//8 69//8 38//8
f 66//8 38//8 37//8
f 6//10 10//10 2//10
f 65//9 70//9 71//9
f 65//9 71//9 67//9
f 58//10 3//10 10//10
f 7//10 61//10 10//10
f 61//10 58//10 10//10
f 72//4 70//4 65//4
f 72//4 65//4 68//4
f 41//10 6//10 2//10
f 12//10 62//10 2//10
f 12//10 3//10 62//10
f 41//10 2//10 62//10
f 39//5 69//5 66//5
f 39//5 66//5 40//5
f 23//6 64//6 16//6
f 20//6 59//6 17//6
f 45//10 44//10 42//10
f 45//10 42//10 43//10
f 21//6 17//6 13//6
f 21//6 13//6 16//6
f 47//10 46//10 49//10
f 47//10 49//10 48//10
f 57//10 56//10 52//10
f 57//10 52//10 55//10
f 16//6 60//6 21//6
f 20//6 21//6 59//6
f 59//6 21//6 60//6
f 60//6 16//6 64//6
f 64//6 23//6 13//6
f 17//6 63//6 13//6
f 59//6 63//6 17//6
f 64//6 13//6 63//6
f 67//10 71//10 72//10
f 67//10 72//10 68//10
f 59//5 43//5 61//5
f 25//5 61//5 43//5
f 24//7 23//7 16//7
f 24//7 16//7 15//7
usemtl marrone_chiaro
f 4//10 11//10 1//10
f 5//10 8//10 9//10
f 24//6 15//6 14//6
f 19//6 18//6 22//6
f 44//5 27//5 26//5
f 44//5 26//5 42//5
f 48//4 29//4 32//4
f 48//4 32//4 47//4
f 34//7 50//7 35//7
f 53//7 52//7 56//7
f 38//2 69//2 39//2
f 71//2 70//2 72//2
