# Blender v2.91.2 OBJ File: ''
# www.blender.org
mtllib Cube.mtl
o obj_0.011
v 5.000000 9.186053 -4.984069
v 5.000000 9.045651 5.012933
v 5.000000 1.046853 -4.984072
v 5.000000 1.046851 5.012930
v -3.998001 0.044751 4.013929
v -4.997002 1.043851 5.012930
v -3.998001 0.044753 -3.982073
v 4.141403 10.044751 4.013932
v 4.999603 9.186354 -4.984069
v 4.141403 10.044753 -4.125770
v -4.999603 9.186354 -4.984069
v -4.141403 10.044753 -4.125770
v -5.000000 1.046851 5.012930
v -5.000000 9.045651 5.012933
v -5.000000 1.046853 -4.984072
v 4.997002 1.043851 5.012930
v -4.141403 10.044751 4.013932
v 3.998001 0.044751 4.013929
v 3.998001 0.044753 -3.982073
v -5.000000 9.186053 -4.984069
vn 1.0000 0.0000 0.0000
vn -0.7071 -0.7071 -0.0000
vn -0.7072 -0.7070 -0.0000
vn 0.6029 0.7976 -0.0183
vn 0.7072 0.7070 0.0000
vn 0.0000 0.7071 -0.7071
vn 0.0000 0.0000 1.0000
vn -1.0000 -0.0000 0.0000
vn 0.0000 1.0000 0.0000
vn 0.0000 -0.7071 0.7071
vn 0.7071 -0.7071 -0.0000
vn 0.7072 -0.7070 -0.0000
vn 0.0000 -1.0000 -0.0000
vn 0.7073 -0.7069 -0.0000
vn -0.7073 -0.7069 -0.0000
vn 0.0000 0.0000 -1.0000
vn 0.7538 0.6570 0.0092
vn -0.7538 0.6570 0.0092
vn -0.7072 0.7070 0.0000
vn -0.6028 0.7977 -0.0185
vn 0.0000 -0.7071 -0.7071
vn 0.0000 0.7071 0.7071
usemtl grigio_scuro
s 1
f 1//1 2//1 3//1
f 4//1 3//1 2//1
f 5//2 6//3 7//2
f 8//4 1//4 9//4
f 8//5 9//5 10//5
f 11//6 12//6 10//6
f 11//6 10//6 9//6
f 6//7 4//7 13//7
f 14//7 13//7 4//7
f 2//7 14//7 4//7
f 13//8 14//8 15//8
f 6//7 16//7 4//7
f 17//9 8//9 10//9
f 17//9 10//9 12//9
f 16//10 6//10 18//10
f 5//10 18//10 6//10
f 18//11 19//11 16//12
f 19//13 18//13 5//13
f 19//13 5//13 7//13
f 4//14 16//12 19//11
f 3//11 4//14 19//11
f 13//15 7//2 6//3
f 11//16 9//16 1//16
f 15//16 20//16 1//16
f 11//16 1//16 20//16
f 15//16 1//16 3//16
f 20//8 15//8 14//8
f 8//17 2//17 1//17
f 20//18 14//18 17//18
f 12//19 11//19 17//19
f 20//20 17//20 11//20
f 19//21 7//21 3//21
f 3//21 7//21 15//21
f 7//2 13//15 15//2
f 14//22 2//22 8//22
f 14//22 8//22 17//22
